<?xml version="1.0" standalone="no"?>
<!DOCTYPE svg PUBLIC "-//W3C//DTD SVG 20010904//EN"
 "http://www.w3.org/TR/2001/REC-SVG-20010904/DTD/svg10.dtd">
<svg version="1.0" xmlns="http://www.w3.org/2000/svg"
 width="1017.000000pt" height="1017.000000pt" viewBox="0 0 1017.000000 1017.000000"
 preserveAspectRatio="xMidYMid meet">
<metadata>
Created by potrace 1.11, written by Peter Selinger 2001-2013
</metadata>
<g transform="translate(0.000000,1017.000000) scale(0.100000,-0.100000)"
fill="#000000" stroke="none">
<path d="M5761 7120 c-33 -83 -39 -90 -224 -283 l-168 -176 -115 1 c-63 0
-118 -2 -121 -6 -15 -15 18 -21 106 -20 50 0 91 -2 91 -5 0 -6 -45 -57 -118
-136 -21 -22 -122 -133 -224 -246 -103 -114 -215 -231 -248 -260 -63 -55 -133
-85 -174 -76 -220 51 -418 83 -566 92 -171 10 -368 23 -450 30 -30 2 -109 7
-175 10 -66 4 -131 8 -145 10 -14 2 -108 6 -210 10 -425 14 -471 16 -640 30
-65 6 -175 12 -355 20 -71 3 -166 7 -210 10 -44 2 -150 7 -235 10 -85 3 -182
8 -215 10 -33 2 -136 7 -230 11 -93 3 -190 8 -215 11 -59 6 -744 11 -792 5
-74 -8 -26 -21 80 -20 85 1 107 -2 108 -13 0 -8 13 -54 28 -104 16 -49 29 -94
31 -100 1 -5 4 -14 5 -20 2 -5 11 -32 20 -60 9 -27 18 -52 18 -55 0 -3 3 -12
6 -20 2 -8 6 -27 9 -42 4 -27 3 -28 -47 -29 -28 0 -123 -3 -211 -6 -150 -5
-180 -11 -172 -35 1 -4 81 -87 178 -185 96 -98 242 -254 324 -348 82 -93 163
-186 181 -205 17 -19 95 -107 174 -195 79 -88 173 -192 209 -230 36 -39 112
-120 168 -181 l102 -110 133 -24 c73 -13 153 -24 178 -23 25 0 295 4 600 7
1116 13 1387 18 1695 31 50 2 155 7 235 10 80 3 197 7 260 10 63 3 180 7 260
10 139 5 241 11 360 20 30 2 98 7 150 10 52 3 111 8 130 10 19 2 82 7 140 10
58 3 121 8 140 10 30 3 140 11 270 20 219 14 267 18 280 20 8 1 69 6 135 10
66 4 127 8 135 10 8 1 78 6 155 10 77 4 156 8 175 10 19 2 89 6 155 9 66 4
145 9 175 11 30 2 107 7 170 10 63 3 142 8 175 10 33 2 110 7 170 10 61 3 135
8 165 10 30 2 105 7 165 10 112 6 203 11 330 20 39 3 120 7 180 10 61 3 139 8
175 10 36 3 108 7 160 10 132 7 264 15 335 20 33 2 114 7 180 10 66 3 143 8
170 10 28 2 104 7 170 11 66 3 136 8 155 9 19 1 63 3 97 4 l63 1 30 60 c21 41
28 68 24 85 -4 16 13 81 49 192 31 92 61 195 67 228 7 33 18 84 26 112 15 52
15 53 -11 87 -15 19 -36 36 -48 38 -20 3 -22 8 -21 78 2 183 8 233 30 231 16
-2 10 22 -6 24 -9 2 -60 6 -115 9 -55 4 -107 8 -115 8 -58 4 -64 -1 -100 -77
-19 -41 -37 -75 -40 -75 -10 0 -32 -71 -39 -124 l-6 -51 -45 3 c-70 5 -77 9
-103 65 -36 78 -41 114 -17 120 26 7 26 32 0 50 -11 7 -23 31 -28 53 l-8 39
-219 37 c-121 20 -296 48 -390 62 -164 25 -204 30 -290 40 -49 6 -122 17 -382
56 l-203 30 -221 126 c-161 91 -275 148 -418 206 -108 44 -199 85 -202 91 -17
25 -2 42 37 41 60 -2 267 -12 386 -20 90 -6 111 -4 132 10 25 16 26 41 2 59
-25 17 -116 38 -191 43 -44 3 -91 8 -105 10 -14 3 -189 7 -390 9 -386 4 -458
7 -755 30 -200 16 -310 19 -567 19 -310 0 -295 -3 -253 50 12 16 29 19 105 20
112 1 126 20 18 24 -43 2 -78 5 -78 8 0 5 156 198 274 339 92 110 100 150 30
167 -17 4 -24 -4 -43 -52z m171 -719 c-2 -10 -222 -306 -276 -372 -10 -13 -27
-16 -67 -13 -30 1 -114 5 -188 8 -73 3 -135 7 -137 9 -2 2 13 24 34 49 20 25
88 111 151 191 l115 145 185 -2 c143 -1 185 -5 183 -15z m-432 3 c0 -9 -293
-384 -297 -380 -2 2 -21 0 -41 -5 -20 -5 -57 -11 -82 -15 -25 -3 -49 -9 -55
-12 -5 -3 -3 3 5 13 8 11 20 26 27 35 7 8 67 85 133 170 l122 155 81 21 c90
24 107 27 107 18z m725 -19 c33 -3 74 -8 90 -10 48 -6 159 -18 172 -18 7 0 9
-5 6 -11 -10 -15 -274 -400 -279 -405 -2 -2 -73 6 -156 18 -84 12 -169 25
-188 27 -58 8 -143 24 -146 27 -4 3 18 33 183 248 l111 145 74 -8 c40 -4 100
-10 133 -13z m685 -50 c266 -45 393 -89 620 -218 96 -55 189 -108 207 -118 67
-38 113 -72 115 -85 4 -41 39 -38 -372 -29 -85 2 -279 6 -430 9 -597 14 -704
17 -708 21 -5 5 8 25 172 263 l119 173 121 -5 c67 -3 137 -8 156 -11z m-6191
-399 c66 -113 121 -207 121 -208 0 -2 -62 -5 -137 -7 -76 -2 -154 -4 -173 -6
-42 -2 -53 11 -69 85 -7 30 -16 64 -21 75 -10 22 -80 248 -80 257 0 3 53 7
119 7 l118 2 122 -205z m195 96 c22 -53 42 -101 46 -107 3 -5 12 -29 20 -52 7
-24 17 -43 22 -43 4 0 8 -7 8 -15 0 -8 9 -30 20 -50 l20 -35 -60 0 c-33 0 -63
-1 -67 -2 -5 -1 -20 16 -34 38 -47 69 -219 354 -219 362 0 4 46 6 103 4 l102
-3 39 -97z m466 73 c8 -2 61 -4 117 -4 l103 -1 24 -47 c13 -27 38 -84 56 -128
17 -44 38 -93 47 -108 8 -16 16 -39 18 -53 l2 -24 -106 -1 c-58 0 -208 -3
-333 -5 l-228 -5 -34 73 c-29 63 -117 265 -134 307 -4 11 33 12 224 6 125 -4
235 -9 244 -10z m296 -13 c10 -7 201 -312 210 -337 4 -9 -9 -13 -45 -13 l-51
-2 -25 55 c-14 31 -25 60 -25 66 0 11 -7 27 -53 129 -42 91 -46 126 -11 102z
m379 -18 c88 -3 171 -8 185 -10 14 -1 50 -3 81 -3 l56 -1 33 -65 c18 -36 31
-67 29 -70 -3 -2 -59 -7 -124 -10 -75 -4 -134 -12 -158 -22 l-38 -16 28 -29
27 -28 -29 0 c-19 0 -37 -11 -59 -35 -28 -32 -37 -35 -90 -37 l-59 -3 -89 145
c-49 80 -96 158 -104 173 l-15 29 83 -6 c46 -3 155 -8 243 -12z m502 -39 c66
-5 152 -15 265 -31 35 -5 52 -13 64 -31 8 -14 14 -27 11 -29 -2 -3 -69 -7
-148 -10 -79 -2 -171 -6 -203 -8 -65 -4 -72 -1 -98 54 -32 68 -31 71 5 66 17
-3 64 -8 104 -11z m643 -10 c333 -16 611 -33 646 -40 11 -2 31 -4 46 -4 20 -1
29 -8 37 -31 l10 -31 -197 5 c-108 2 -197 5 -197 5 0 1 -83 4 -185 7 -234 7
-261 9 -269 22 -10 17 -90 49 -153 62 -32 6 -58 14 -58 17 0 3 48 3 108 -1 59
-3 154 -8 212 -11z m-210 -64 l45 -16 -39 -3 c-48 -4 -62 1 -77 29 -10 20 -9
21 7 14 11 -4 39 -15 64 -24z m1130 -5 c58 -8 123 -17 145 -20 68 -9 136 -23
143 -30 3 -4 -7 -5 -23 -1 -29 6 -258 15 -361 15 -40 0 -53 4 -58 18 -3 9 -9
23 -12 30 -5 10 2 12 27 8 19 -4 81 -13 139 -20z m-1700 -97 c0 -10 -41 -34
-53 -31 -4 1 -7 -5 -5 -14 2 -13 -4 -17 -29 -17 -18 1 -50 2 -70 2 l-38 1 32
32 c24 24 44 33 80 38 53 6 83 2 83 -11z m325 -11 c2 -2 -10 -18 -26 -36 l-30
-34 -72 8 c-40 4 -101 7 -136 6 l-63 0 33 35 34 35 129 -6 c71 -3 130 -6 131
-8z m172 -18 c38 -9 53 -18 71 -45 30 -47 28 -57 -10 -51 -38 6 -112 16 -182
25 l-49 6 39 38 c41 40 56 43 131 27z m218 -35 c28 -4 56 -8 63 -8 22 -1 13
-15 -30 -46 -32 -24 -48 -29 -72 -25 -17 3 -31 6 -32 7 -1 1 -13 23 -27 48
l-25 46 36 -7 c21 -5 60 -11 87 -15z m420 -30 c121 -4 261 -9 310 -10 50 -2
104 -4 121 -4 25 -1 33 -7 48 -41 16 -36 15 -66 -2 -56 -4 2 -142 7 -307 11
-290 7 -439 11 -480 14 -16 1 -10 10 30 51 26 27 51 47 54 45 3 -1 105 -6 226
-10z m823 -27 l113 -3 32 -35 c17 -19 54 -59 82 -89 49 -53 49 -54 20 -46 -16
4 -64 9 -105 11 -44 3 -108 15 -155 31 -99 32 -147 43 -205 46 -41 2 -47 5
-67 42 -12 22 -22 43 -23 48 0 4 44 5 98 2 53 -2 148 -5 210 -7z m468 -23 c33
-6 85 -54 130 -125 27 -41 64 -114 64 -125 0 -11 -57 -4 -75 8 -22 15 -136 58
-202 76 -29 8 -49 22 -64 44 -12 17 -32 43 -44 57 -12 14 -30 37 -39 51 l-17
27 108 -4 c59 -3 122 -7 139 -9z m389 -21 c39 -3 90 -7 115 -9 25 -2 83 -7
130 -11 47 -4 94 -8 105 -10 11 -1 35 -3 52 -3 28 -1 43 -13 110 -92 43 -50
81 -97 85 -104 10 -16 -706 -11 -738 6 -11 6 -30 32 -42 57 -22 49 -60 118
-77 139 -5 7 -16 20 -24 28 -12 15 -4 16 100 10 63 -3 146 -8 184 -11z m4701
-31 c-2 -10 -10 -37 -17 -60 -9 -31 -16 -40 -29 -38 -10 2 -39 7 -64 10 l-46
7 27 49 26 49 54 0 c47 0 54 -2 49 -17z m110 -19 c-3 -9 -6 -33 -6 -55 0 -38
-1 -39 -32 -35 -18 3 -38 5 -45 5 -13 1 -10 14 14 69 11 26 20 32 45 32 23 0
29 -4 24 -16z m-4026 -13 c50 -9 79 -13 190 -27 19 -2 46 -6 60 -9 14 -2 48
-7 75 -11 28 -3 57 -7 65 -9 72 -14 235 -43 275 -50 89 -16 135 -27 135 -35 0
-5 3 -16 6 -24 6 -15 -36 -16 -452 -13 l-458 4 -31 36 c-17 20 -53 64 -80 98
l-48 61 104 -6 c57 -3 129 -10 159 -15z m3825 -102 l43 -11 -14 -46 c-7 -26
-14 -56 -14 -68 0 -19 -5 -21 -57 -19 -32 2 -61 3 -65 4 -14 2 -8 80 9 116 18
38 29 41 98 24z m183 -28 c9 -5 12 -25 10 -62 l-3 -54 -68 -3 -69 -4 5 49 c8
77 13 83 66 83 25 0 52 -4 59 -9z"/>
<path d="M5414 4136 c-70 -33 -117 -77 -147 -138 -32 -68 -45 -112 -92 -329
-2 -9 -13 -61 -25 -115 -28 -130 -29 -187 -3 -222 31 -42 61 -54 122 -48 89 8
176 80 231 193 35 72 44 114 44 198 0 147 -106 177 -235 67 -24 -20 -40 -32
-37 -26 4 6 10 26 13 45 14 81 67 276 81 297 14 21 21 22 101 20 78 -3 87 -1
100 19 13 19 12 24 -6 42 -28 28 -83 27 -147 -3z m21 -426 c57 -110 -57 -390
-158 -390 -12 0 -31 10 -44 22 -28 26 -31 92 -8 177 44 168 165 278 210 191z"/>
<path d="M4433 4005 c-123 -62 -175 -154 -248 -438 -43 -167 -55 -193 -103
-214 -59 -25 -66 -29 -70 -41 -3 -9 25 -12 100 -13 57 0 123 -2 148 -4 245
-17 315 -16 350 3 19 10 43 31 54 46 26 34 26 94 1 112 -22 16 -25 17 -43 5
-14 -9 -16 -29 -6 -80 5 -27 3 -36 -12 -45 -27 -16 -51 -16 -122 0 -93 22
-160 26 -224 16 -32 -5 -58 -8 -58 -6 0 2 9 20 20 41 11 21 42 119 69 218 58
213 56 205 89 274 29 57 82 111 110 111 10 0 42 -16 71 -35 42 -27 58 -32 72
-24 35 18 15 63 -36 85 -51 21 -105 17 -162 -11z"/>
<path d="M4967 3992 c-34 -38 -13 -84 38 -84 33 0 55 19 55 48 0 49 -61 72
-93 36z"/>
<path d="M6610 3921 c-30 -17 -37 -27 -50 -82 l-16 -64 -41 -3 c-38 -3 -40 -1
-36 21 6 31 -19 51 -52 43 -27 -7 -112 -86 -158 -146 l-26 -35 14 60 c21 88
20 105 -8 105 -58 0 -215 -112 -197 -140 7 -11 18 -5 49 23 45 40 71 47 71 19
0 -10 -22 -108 -50 -218 -27 -109 -50 -200 -50 -201 0 -2 20 -3 45 -3 41 0 45
3 51 28 52 227 82 300 153 364 41 38 137 78 128 53 -5 -12 3 -15 44 -15 46 0
49 -2 45 -22 -3 -13 -21 -86 -41 -163 -75 -292 -38 -329 178 -178 68 48 82 61
74 74 -9 14 -19 10 -75 -28 -35 -23 -75 -43 -88 -43 -24 0 -39 28 -30 58 3 9
7 28 10 42 5 29 31 133 52 208 l15 52 64 0 c54 0 63 3 68 20 5 18 0 20 -58 20
l-63 0 14 63 c8 34 17 72 21 85 6 27 -9 28 -57 3z"/>
<path d="M4900 3795 c-63 -33 -125 -98 -108 -113 10 -8 23 -2 52 24 65 58 79
43 50 -51 -34 -112 -74 -281 -74 -315 0 -85 64 -79 178 17 43 37 50 48 41 59
-10 13 -16 11 -38 -9 -39 -36 -78 -59 -84 -49 -9 13 0 57 53 253 35 133 46
187 38 196 -16 19 -58 15 -108 -12z"/>
<path d="M5835 3813 c-11 -3 -37 -18 -57 -33 -106 -77 -189 -271 -174 -403 16
-140 150 -126 329 34 15 13 15 18 4 27 -11 9 -28 3 -76 -29 -74 -48 -124 -57
-146 -26 -16 22 -20 94 -7 113 4 6 45 30 92 53 120 58 163 99 179 170 9 41 8
46 -19 72 -28 29 -69 36 -125 22z m43 -65 c17 -17 15 -65 -5 -95 -18 -28 -127
-103 -149 -103 -9 0 -8 14 5 58 21 68 36 99 64 130 22 24 66 29 85 10z"/>
<path d="M7190 3800 c-7 -13 -7 -33 1 -67 6 -26 11 -68 10 -93 -1 -52 -36
-162 -75 -235 l-26 -50 2 35 c7 146 -94 420 -155 420 -15 0 -125 -64 -146 -85
-27 -26 -2 -36 39 -15 22 11 46 20 54 20 19 0 60 -53 82 -106 24 -55 54 -213
55 -287 0 -76 -10 -113 -49 -169 -60 -85 -112 -113 -191 -102 -72 10 -101 8
-119 -10 -22 -21 1 -54 43 -62 108 -20 246 69 350 226 65 98 141 250 166 332
10 32 12 41 25 91 3 12 8 49 11 83 4 48 2 63 -11 77 -23 23 -53 21 -66 -3z"/>
</g>
</svg>
